<?xml version="1.0" encoding="UTF-8"?>
<svg width="145px" height="145px" viewBox="0 0 145 145" version="1.1" xmlns="http://www.w3.org/2000/svg" xmlns:xlink="http://www.w3.org/1999/xlink">
    <!-- Generator: Sketch 46.2 (44496) - http://www.bohemiancoding.com/sketch -->
    <title>Logo-Mensenrechten</title>
    <desc>Created with Sketch.</desc>
    <defs></defs>
    <g id="Symbols" stroke="none" stroke-width="1" fill="none" fill-rule="evenodd">
        <g id="Menu-Copy" transform="translate(-375.000000, 0.000000)">
            <g id="Logo-Mensenrechten" transform="translate(375.000000, 0.000000)">
                <polygon id="Shape" fill="#D43217" points="0 0 145 0 145 145 0 145"></polygon>
                <path d="M13.8548458,16.4035242 C13.3182053,16.0117803 12.666563,15.8095464 12.0024229,15.8286344 C11.2434485,15.8339571 10.5203406,16.1523767 10.0039756,16.7086481 C9.48761071,17.2649194 9.22380206,18.0096885 9.27488987,18.7669604 C9.27488987,20.6832599 10.4310573,21.9160793 12.2068282,21.9160793 C12.8048868,21.9223974 13.3973491,21.8004199 13.9442731,21.55837 L14.2061674,22.2929515 C13.8802083,22.4522231 13.5373811,22.5743553 13.184141,22.6570485 C12.8438747,22.7434807 12.49402,22.7864076 12.1429515,22.7848018 C11.0884184,22.8201756 10.0673486,22.4118641 9.32796908,21.6591296 C8.58858952,20.906395 8.19861981,19.8781804 8.25286344,18.8244493 C8.21971062,17.7990716 8.60671969,16.8046248 9.32426897,16.071398 C10.0418182,15.3381712 11.0276695,14.9297624 12.0535242,14.9407489 C12.5374861,14.9361573 13.0181667,15.0206012 13.4715859,15.1898678 C13.7849257,15.2962561 14.0784745,15.4538228 14.3403084,15.6561674 L13.8740088,16.3651982 L13.8740088,16.3651982 L13.8548458,16.4035242 Z" id="Shape" fill="#FFFFFF" fill-rule="nonzero"></path>
                <path d="M18.9585903,15.796696 C17.3924714,15.9852822 16.2140767,17.3140874 16.2140767,18.8915198 C16.2140767,20.4689523 17.3924714,21.7977575 18.9585903,21.9863436 C20.572561,21.8802215 21.8018956,20.4972201 21.7180617,18.8819383 C21.7946839,17.2715138 20.56734,15.896434 18.9585903,15.7903084 L18.9585903,15.7903084 L18.9585903,15.796696 Z M18.9585903,22.8231278 C17.9223773,22.8422165 16.9247773,22.4301024 16.2041512,21.6852535 C15.4835251,20.9404047 15.1046056,19.9297297 15.1579295,18.8947137 C15.1579295,16.7991945 16.8566835,15.1004405 18.9522026,15.1004405 C21.0477218,15.1004405 22.7464758,16.7991945 22.7464758,18.8947137 C22.8015484,19.9279837 22.4249743,20.9377087 21.7067493,21.6825796 C20.9885242,22.4274505 19.9931804,22.8405407 18.9585903,22.8231278 L18.9585903,22.8231278 L18.9585903,22.8231278 Z" id="Shape" fill="#FFFFFF" fill-rule="nonzero"></path>
                <polygon id="Shape" fill="#FFFFFF" fill-rule="nonzero" points="24.5669604 22.6698238 24.5669604 15.1132159 25.5059471 15.1132159 25.5059471 21.8777533 28.885022 21.8777533 28.885022 22.6698238 24.5669604 22.6698238"></polygon>
                <polygon id="Shape" fill="#FFFFFF" fill-rule="nonzero" points="30.2328194 22.6698238 30.2328194 15.1132159 31.1718062 15.1132159 31.1718062 21.8777533 34.5508811 21.8777533 34.5508811 22.6698238 30.2328194 22.6698238"></polygon>
                <polygon id="Shape" fill="#FFFFFF" fill-rule="nonzero" points="35.8986784 22.6698238 35.8986784 15.1132159 40.1464758 15.1132159 40.1464758 15.9052863 36.8376652 15.9052863 36.8376652 18.4220264 39.5779736 18.4220264 39.5779736 19.2140969 36.8376652 19.2140969 36.8376652 21.8777533 40.2486784 21.8777533 40.2486784 22.6698238 35.8986784 22.6698238"></polygon>
                <path d="M47.3262115,22.5676211 C46.7018389,22.7378836 46.0570639,22.8217044 45.4099119,22.8167401 C44.3483111,22.8479412 43.3195746,22.4465707 42.5596068,21.7046687 C41.799639,20.9627666 41.3736391,19.9439825 41.3792952,18.8819383 C41.3625512,17.8272458 41.7812362,16.8122776 42.5367179,16.0761362 C43.2921996,15.3399948 44.317682,14.9477663 45.3715859,14.9918502 C45.9001944,14.9900478 46.4273181,15.0479028 46.9429515,15.1643172 C47.2649141,15.2546277 47.5724513,15.3901162 47.8563877,15.5667401 L47.4986784,16.3460352 C47.3134361,16.2438326 47.1920705,16.1863436 47.0962555,16.14163 C46.5753279,15.9381201 46.0202581,15.8362127 45.4610132,15.8414097 C44.5731772,15.76753 43.7037553,16.1238505 43.1231278,16.7995595 C42.3109276,17.7550946 42.1445547,19.1020312 42.6998366,20.2264771 C43.2551185,21.3509229 44.4257502,22.0376103 45.6781938,21.9735683 C46.1088763,21.9713761 46.5377565,21.9177661 46.9557269,21.8138767 L46.9557269,19.2907489 L47.8947137,19.2907489 L47.8947137,22.3823789 C47.6519824,22.4718062 47.4731278,22.5292952 47.3453744,22.5676211 L47.3453744,22.5676211 L47.3262115,22.5676211 Z" id="Shape" fill="#FFFFFF" fill-rule="nonzero"></path>
                <polygon id="Shape" fill="#FFFFFF" fill-rule="nonzero" points="50.1751101 22.6698238 50.1751101 15.1132159 54.4229075 15.1132159 54.4229075 15.9052863 51.1140969 15.9052863 51.1140969 18.4220264 53.8544053 18.4220264 53.8544053 19.2140969 51.1140969 19.2140969 51.1140969 21.8777533 54.5251101 21.8777533 54.5251101 22.6698238 50.1751101 22.6698238"></polygon>
                <path d="M61.6026432,22.8614537 L61.014978,22.8614537 L58.038326,15.1132159 L59.0475771,15.1132159 L61.2768722,21.0090308 C61.3252477,21.1247298 61.3533381,21.2478951 61.3599119,21.3731278 C61.3603465,21.2484349 61.3841805,21.1249312 61.4301762,21.0090308 L63.5700441,15.1132159 L64.5090308,15.1132159 L61.5770925,22.8614537 L61.5770925,22.8614537 L61.6026432,22.8614537 Z" id="Shape" fill="#FFFFFF" fill-rule="nonzero"></path>
                <path d="M69.0059471,15.796696 C67.4398282,15.9852822 66.2614335,17.3140874 66.2614335,18.8915198 C66.2614335,20.4689523 67.4398282,21.7977575 69.0059471,21.9863436 C70.6199179,21.8802215 71.8492524,20.4972201 71.7654185,18.8819383 C71.8420408,17.2715138 70.6146968,15.896434 69.0059471,15.7903084 L69.0059471,15.7903084 L69.0059471,15.796696 Z M69.0059471,22.8231278 C67.9642485,22.8512384 66.9581304,22.4430895 66.2304226,21.6971889 C65.5027148,20.9512884 65.1195289,19.9354008 65.173348,18.8947137 C65.173348,16.7991945 66.872102,15.1004405 68.9676211,15.1004405 C71.0631403,15.1004405 72.7618943,16.7991945 72.7618943,18.8947137 C72.8169669,19.9279837 72.4403929,20.9377087 71.7221678,21.6825796 C71.0039427,22.4274505 70.0085989,22.8405407 68.9740088,22.8231278 L68.9740088,22.8231278 L69.0059471,22.8231278 Z" id="Shape" fill="#FFFFFF" fill-rule="nonzero"></path>
                <path d="M77.7442731,15.796696 C76.1781542,15.9852822 74.9997595,17.3140874 74.9997595,18.8915198 C74.9997595,20.4689523 76.1781542,21.7977575 77.7442731,21.9863436 C79.3582438,21.8802215 80.5875784,20.4972201 80.5037445,18.8819383 C80.5803668,17.2715138 79.3530228,15.896434 77.7442731,15.7903084 L77.7442731,15.7903084 L77.7442731,15.796696 Z M77.7442731,22.8231278 C76.7080601,22.8422165 75.7104601,22.4301024 74.989834,21.6852535 C74.2692079,20.9404047 73.8902884,19.9297297 73.9436123,18.8947137 C73.9436122,17.5391503 74.6667965,16.2865581 75.8407488,15.6087764 C77.014701,14.9309946 78.4610699,14.9309946 79.6350222,15.6087764 C80.8089744,16.2865581 81.5321588,17.5391503 81.5321586,18.8947137 C81.5872312,19.9279837 81.2106572,20.9377087 80.4924321,21.6825796 C79.774207,22.4274505 78.7788632,22.8405407 77.7442731,22.8231278 L77.7442731,22.8231278 L77.7442731,22.8231278 Z" id="Shape" fill="#FFFFFF" fill-rule="nonzero"></path>
                <path d="M86.6167401,16.122467 C86.2917409,15.9122909 85.8985853,15.8345741 85.5180617,15.9052863 L84.29163,15.9052863 L84.29163,18.639207 L85.5180617,18.639207 C85.9283232,18.700102 86.3434862,18.565917 86.6404987,18.2764239 C86.9375112,17.9869307 87.0822955,17.5753442 87.0319383,17.1636564 C87.0613158,16.7711649 86.9081379,16.3870419 86.6167401,16.122467 L86.6167401,16.122467 L86.6167401,16.122467 Z M87.3832599,22.6698238 L85.2881057,19.4057269 L84.2788546,19.4057269 L84.2788546,22.6442731 L83.3718062,22.6442731 L83.3718062,15.1132159 L85.6713656,15.1132159 C86.3215766,15.0240903 86.9775893,15.2302657 87.4599119,15.6753304 C87.8453812,16.0691945 88.0590016,16.5998002 88.0539648,17.1508811 C88.0635871,17.7397397 87.8329463,18.3071159 87.4151982,18.7222467 C87.1065142,19.0328256 86.7052049,19.2346013 86.2718062,19.2971366 L88.507489,22.6762115 L87.4343612,22.6762115 L87.3832599,22.6698238 Z" id="Shape" fill="#FFFFFF" fill-rule="nonzero"></path>
                <path d="M13.107489,32.2513216 C12.5680705,31.9131964 11.9346249,31.7565137 11.2997797,31.804185 L10.1563877,31.804185 L10.1563877,36.8185022 L11.2997797,36.8185022 C13.0180617,36.8185022 13.9762115,35.9114537 13.9762115,34.3017621 C14.0153812,33.5214064 13.6953431,32.7660223 13.107489,32.2513216 L13.107489,32.2513216 L13.107489,32.2513216 Z M14.4936123,36.9781938 C13.6821252,37.7690754 12.5703194,38.1737913 11.4403084,38.0896476 L8.63612335,38.0896476 L8.63612335,30.5330396 L11.4403084,30.5330396 C12.8711454,30.5330396 13.7654185,30.8524229 14.5063877,31.6444934 C15.1647261,32.3673481 15.5272526,33.3112848 15.5220264,34.2889868 C15.52588,35.2844993 15.1540657,36.2448295 14.480837,36.9781938 L14.480837,36.9781938 L14.4936123,36.9781938 Z" id="Shape" fill="#FFFFFF" fill-rule="nonzero"></path>
                <polygon id="Shape" fill="#FFFFFF" fill-rule="nonzero" points="16.8314978 38.0896476 16.8314978 30.5330396 21.4306167 30.5330396 21.4306167 31.7594714 18.2751101 31.7594714 18.2751101 33.6246696 20.8621145 33.6246696 20.8621145 34.8511013 18.2751101 34.8511013 18.2751101 36.8632159 21.577533 36.8632159 21.577533 38.0896476 16.8314978 38.0896476"></polygon>
                <path d="M28.2398678,31.7594714 L27.3008811,31.7594714 L27.3008811,33.8418502 L28.2398678,33.8418502 C29.153304,33.8418502 29.5557269,33.522467 29.5557269,32.7687225 C29.5557269,32.014978 29.1788546,31.7594714 28.2398678,31.7594714 L28.2398678,31.7594714 L28.2398678,31.7594714 Z M29.7537445,38.0896476 L28.0226872,35.0682819 L27.3008811,35.0682819 L27.3008811,38.0896476 L25.8828194,38.0896476 L25.8828194,30.5330396 L28.3995595,30.5330396 C29.4982379,30.5330396 30.0028634,30.6671806 30.45,31.0951542 C30.8898518,31.5218998 31.1228991,32.1185007 31.0887665,32.7303965 C31.1106159,33.2359467 30.9646351,33.7345275 30.6735683,34.1484581 C30.3815335,34.5212321 29.9594509,34.7699186 29.4918502,34.8447137 L31.3698238,38.0832599 L29.7920705,38.0832599 L29.7537445,38.0896476 Z" id="Shape" fill="#FFFFFF" fill-rule="nonzero"></path>
                <polygon id="Shape" fill="#FFFFFF" fill-rule="nonzero" points="32.5451542 38.0896476 32.5451542 30.5330396 37.1506608 30.5330396 37.1506608 31.7594714 33.9887665 31.7594714 33.9887665 33.6246696 36.5757709 33.6246696 36.5757709 34.8511013 33.9887665 34.8511013 33.9887665 36.8632159 37.2975771 36.8632159 37.2975771 38.0896476 32.5451542 38.0896476"></polygon>
                <path d="M43.7682819,32.2577093 C43.26008,31.9017413 42.6511062,31.7181536 42.030837,31.7339207 C41.366253,31.7033716 40.7190316,31.9513315 40.2449804,32.4181083 C39.7709292,32.8848851 39.5129909,33.5281949 39.5332599,34.1931718 C39.4930464,34.9247695 39.7688472,35.638426 40.2905985,36.1528459 C40.8123498,36.6672659 41.5298375,36.9329406 42.260793,36.8823789 C42.8325042,36.8792691 43.3975902,36.7597317 43.9215859,36.5310573 L44.1834802,37.7447137 C43.8580646,37.9052731 43.5150871,38.0274588 43.1614537,38.1088106 C42.7627448,38.1953636 42.3557895,38.238201 41.9477974,38.2365639 C40.9588398,38.282246 39.9905695,37.9434658 39.245815,37.2911894 C38.4162039,36.5070274 37.9528868,35.4112823 37.9682819,34.2698238 C37.9543664,33.2088924 38.3715899,32.1877322 39.1244493,31.4400881 C39.8793356,30.697008 40.9166015,30.3132661 41.973348,30.3861233 C42.822318,30.3507747 43.6580529,30.6053246 44.3431718,31.1079295 L43.7682819,32.2577093 L43.7682819,32.2577093 Z" id="Shape" fill="#FFFFFF" fill-rule="nonzero"></path>
                <polygon id="Shape" fill="#FFFFFF" fill-rule="nonzero" points="50.9671806 38.0896476 50.9671806 34.8511013 47.0834802 34.8511013 47.0834802 38.0896476 45.6462555 38.0896476 45.6462555 30.5330396 47.0834802 30.5330396 47.0834802 33.5544053 50.9671806 33.5544053 50.9671806 30.5330396 52.410793 30.5330396 52.410793 38.0896476 50.9671806 38.0896476"></polygon>
                <polygon id="Shape" fill="#FFFFFF" fill-rule="nonzero" points="57.2398678 31.7594714 57.2398678 38.0896476 55.7962555 38.0896476 55.7962555 31.7594714 53.5286344 31.7594714 53.5286344 30.5330396 59.507489 30.5330396 59.507489 31.7594714 57.2398678 31.7594714"></polygon>
                <polygon id="Shape" fill="#FFFFFF" fill-rule="nonzero" points="60.6381057 38.0896476 60.6381057 30.5330396 65.2436123 30.5330396 65.2436123 31.7594714 62.0817181 31.7594714 62.0817181 33.6246696 64.6687225 33.6246696 64.6687225 34.8511013 62.0817181 34.8511013 62.0817181 36.8632159 65.3905286 36.8632159 65.3905286 38.0896476 60.6381057 38.0896476"></polygon>
                <path d="M71.8740088,38.1535242 L68.6354626,33.2669604 C68.6354626,33.235022 68.5524229,33.1328194 68.4757709,32.9667401 C68.3991189,32.8006608 68.3671806,32.8198238 68.3544053,32.8198238 C68.3096944,32.7370622 68.2753675,32.6490993 68.2522026,32.5579295 L68.2522026,38.0960352 L66.8788546,38.0960352 L66.8788546,30.5330396 L68.5396476,30.5330396 L71.7334802,35.5026432 C71.7334802,35.5026432 71.7781938,35.5856828 71.8165198,35.6623348 L71.8740088,35.8092511 L71.9442731,36.0008811 L72.0145374,36.1414097 L72.0145374,30.5330396 L73.3751101,30.5330396 L73.3751101,38.1535242 L71.8740088,38.1535242 Z" id="Shape" fill="#FFFFFF" fill-rule="nonzero"></path>
                <path d="M11.4914097,49.5171806 L10.4885463,49.5171806 L7.68436123,41.7625551 L9.27488987,41.7625551 L11.0059471,46.8726872 L11.0059471,46.9748899 L11.0059471,47.1026432 L11.0378855,47.2431718 L11.0378855,47.1601322 C11.033468,47.0946402 11.0444045,47.0290214 11.0698238,46.9685022 L11.1145374,46.8790749 L12.7625551,41.7689427 L14.2764317,41.7689427 L11.4722467,49.5427313 L11.4722467,49.5427313 L11.4914097,49.5171806 Z" id="Shape" fill="#FFFFFF" fill-rule="nonzero"></path>
                <path d="M17.1700441,43.4744493 L16.3013216,46.2339207 L18.0515419,46.2339207 L17.1700441,43.5 L17.1700441,43.5 L17.1700441,43.4744493 Z M19.0352423,49.3 L18.4411894,47.4348018 L15.8861233,47.4348018 L15.2473568,49.3 L13.7334802,49.3 L16.5185022,41.7625551 L17.7960352,41.7625551 L20.5299559,49.319163 L19.0160793,49.319163 L19.0352423,49.3 Z" id="Shape" fill="#FFFFFF" fill-rule="nonzero"></path>
                <path d="M26.6365639,49.3702643 L23.3980176,44.4837004 C23.3980176,44.4517621 23.314978,44.3495595 23.238326,44.1834802 C23.161674,44.0174009 23.161674,44.0365639 23.1488987,44.0237885 C23.1041283,43.9410545 23.0697984,43.8530841 23.046696,43.7618943 L23.046696,49.3 L21.673348,49.3 L21.673348,41.7625551 L23.3277533,41.7625551 L26.5215859,46.7321586 C26.5215859,46.7321586 26.5662996,46.8151982 26.6046256,46.8918502 L26.6748899,47.0387665 L26.7451542,47.2367841 L26.8154185,47.3773128 L26.8154185,41.7625551 L28.1759912,41.7625551 L28.1759912,49.3702643 L26.6621145,49.3702643 L26.6365639,49.3702643 Z" id="Shape" fill="#FFFFFF" fill-rule="nonzero"></path>
                <path d="M37.546696,43.461674 C37.0072776,43.1235488 36.3738319,42.9668661 35.7389868,43.0145374 L34.5955947,43.0145374 L34.5955947,48.0288546 L35.7389868,48.0288546 C37.4572687,48.0288546 38.4154185,47.1218062 38.4154185,45.5121145 C38.4545883,44.7317588 38.1345502,43.9763748 37.546696,43.461674 L37.546696,43.461674 L37.546696,43.461674 Z M38.9328194,48.1885463 C38.1198154,48.9811624 37.0053012,49.3860172 35.8731278,49.3 L33.0817181,49.3 L33.0817181,41.7625551 L35.8859031,41.7625551 C37.3167401,41.7625551 38.2110132,42.0819383 38.9519824,42.8740088 C39.6131852,43.5955595 39.978119,44.5398257 39.9740088,45.5185022 C39.9778624,46.5140148 39.6060481,47.4743449 38.9328194,48.2077093 L38.9328194,48.2077093 L38.9328194,48.1885463 Z" id="Shape" fill="#FFFFFF" fill-rule="nonzero"></path>
                <polygon id="Shape" fill="#FFFFFF" fill-rule="nonzero" points="41.2898678 49.3063877 41.2898678 41.7497797 45.8953744 41.7497797 45.8953744 42.9762115 42.7334802 42.9762115 42.7334802 44.8414097 45.3204846 44.8414097 45.3204846 46.0614537 42.7334802 46.0614537 42.7334802 48.0799559 46.0422907 48.0799559 46.0422907 49.3063877 41.2898678 49.3063877"></polygon>
                <path d="M56.8693833,49.3 L56.8693833,43.7618943 C56.8194173,44.1303364 56.7228285,44.4909346 56.5819383,44.835022 L54.8508811,49.3063877 L53.573348,49.3063877 L51.9955947,44.9244493 C51.8665632,44.5328423 51.7704151,44.1311566 51.7081498,43.7235683 L51.7081498,49.3 L50.4306167,49.3 L50.4306167,41.7625551 L52.161674,41.7625551 L54.1737885,47.1537445 C54.2569581,47.3372182 54.3067105,47.5340645 54.3207048,47.735022 C54.3280478,47.5344957 54.3735752,47.3372106 54.4548458,47.1537445 L56.5436123,41.7625551 L58.2746696,41.7625551 L58.2746696,49.3 L56.9013216,49.3 L56.8693833,49.3 Z" id="Shape" fill="#FFFFFF" fill-rule="nonzero"></path>
                <polygon id="Shape" fill="#FFFFFF" fill-rule="nonzero" points="60.3762115 49.3063877 60.3762115 41.7497797 64.9753304 41.7497797 64.9753304 42.9762115 61.8198238 42.9762115 61.8198238 44.8414097 64.4068282 44.8414097 64.4068282 46.0614537 61.8198238 46.0614537 61.8198238 48.0799559 65.1286344 48.0799559 65.1286344 49.3063877 60.3762115 49.3063877"></polygon>
                <path d="M71.5801762,49.3702643 L68.34163,44.4837004 C68.283199,44.3864811 68.2298956,44.2862706 68.1819383,44.1834802 C68.1244493,44.0940529 68.0988987,44.0365639 68.092511,44.0237885 C68.0477406,43.9410545 68.0134108,43.8530841 67.9903084,43.7618943 L67.9903084,49.3 L66.6169604,49.3 L66.6169604,41.7625551 L68.2777533,41.7625551 L71.4715859,46.7321586 C71.4715859,46.7321586 71.5162996,46.8151982 71.5546256,46.8918502 L71.6248899,47.0387665 L71.6951542,47.2367841 L71.7654185,47.3773128 L71.7654185,41.7625551 L73.1259912,41.7625551 L73.1259912,49.3702643 L71.6121145,49.3702643 L71.5801762,49.3702643 Z" id="Shape" fill="#FFFFFF" fill-rule="nonzero"></path>
                <path d="M78.8429515,43.5447137 C78.2455184,43.2420103 77.5944081,43.0596995 76.926652,43.0081498 C76.2878855,43.0081498 75.8279736,43.2828194 75.8279736,43.7044053 C75.8279736,44.0237885 76.0068282,44.2218062 76.5433921,44.5028634 C77.3501167,44.8936617 78.1053483,45.3828459 78.7918502,45.9592511 C79.132664,46.3264878 79.3161008,46.8125952 79.3028634,47.3134361 C79.3028634,48.6612335 78.3255507,49.453304 76.6711454,49.453304 C76.4576096,49.4490877 76.2444196,49.4341644 76.0323789,49.4085903 C75.4839161,49.3276352 74.9540956,49.1503075 74.4674009,48.8848018 L73.9755507,48.6548458 L74.5759912,47.3262115 C74.9188092,47.5256799 75.2752744,47.7007107 75.6427313,47.85 C75.9883064,47.9808206 76.3529673,48.0541843 76.7222467,48.0671806 C77.3610132,48.0671806 77.8145374,47.7669604 77.8145374,47.3134361 C77.7827428,46.93972 77.5316024,46.6207717 77.1757709,46.5022026 L76.0196035,45.8634361 C74.6909692,45.0969163 74.2821586,44.5859031 74.2821586,43.7682819 C74.2818576,43.3966978 74.3834891,43.0321501 74.5759912,42.7143172 C74.7249494,42.49425 74.9133676,42.3036661 75.1317181,42.1522026 C75.6909499,41.7631905 76.3697217,41.5844472 77.0480176,41.6475771 C77.5236732,41.6435455 77.9972834,41.7102815 78.453304,41.8455947 C78.820854,41.9590426 79.1777908,42.1043821 79.5200441,42.2799559 L78.9515419,43.557489 L78.9515419,43.557489 L78.8429515,43.5447137 Z" id="Shape" fill="#FFFFFF" fill-rule="nonzero"></path>
                <polygon id="Shape" fill="#FFFFFF" fill-rule="nonzero" points="144.853084 27.0645374 8.55947137 27.0645374 8.55947137 25.6592511 144.853084 25.6592511 144.853084 27.0645374"></polygon>
            </g>
        </g>
    </g>
</svg>